<svg width="82" height="20" viewBox="0 0 82 20" fill="none" xmlns="http://www.w3.org/2000/svg">
<path d="M13.36 17.104L12.136 13.384H6.28L5.032 17.104L7.024 17.608V19H0.688V17.608L2.656 17.104L8.272 1.48H11.224L16.792 17.104L18.712 17.608V19H11.392V17.608L13.36 17.104ZM9.232 4.648L6.88 11.632H11.56L9.328 4.648H9.232ZM19.0917 12.544C19.0917 11.488 19.2357 10.504 19.5237 9.592C19.8277 8.664 20.2277 7.92 20.7237 7.36C21.1877 6.848 21.7397 6.464 22.3797 6.208C23.0197 5.936 23.7397 5.8 24.5397 5.8C25.2917 5.8 25.9557 5.936 26.5317 6.208C27.1077 6.48 27.6277 6.968 28.0917 7.672V2.08L26.2437 1.624V0.279999H31.1397V17.2L32.9877 17.656V19L28.5477 19.24L28.3557 17.272C27.8597 18.008 27.2997 18.52 26.6757 18.808C26.0517 19.096 25.3237 19.24 24.4917 19.24C23.6117 19.24 22.8677 19.112 22.2597 18.856C21.6677 18.584 21.1637 18.208 20.7477 17.728C20.2517 17.168 19.8517 16.44 19.5477 15.544C19.2437 14.632 19.0917 13.632 19.0917 12.544ZM28.0917 12.616C28.0917 11.688 28.0117 10.88 27.8517 10.192C27.6917 9.504 27.4997 8.984 27.2757 8.632C27.0357 8.248 26.7317 7.952 26.3637 7.744C26.0117 7.536 25.5797 7.432 25.0677 7.432C24.6837 7.432 24.2917 7.512 23.8917 7.672C23.4917 7.832 23.1797 8.12 22.9557 8.536C22.7477 8.92 22.5877 9.448 22.4757 10.12C22.3797 10.792 22.3317 11.528 22.3317 12.328C22.3317 13.256 22.3957 14.064 22.5237 14.752C22.6517 15.44 22.8117 15.968 23.0037 16.336C23.2277 16.736 23.5317 17.056 23.9157 17.296C24.3157 17.52 24.7397 17.632 25.1877 17.632C25.5557 17.632 25.9317 17.552 26.3157 17.392C26.6997 17.216 27.0197 16.928 27.2757 16.528C27.5317 16.112 27.7317 15.568 27.8757 14.896C28.0197 14.208 28.0917 13.448 28.0917 12.616ZM36.0295 17.2V7.84L34.1815 7.384V6.04H38.3575L38.8855 8.44H38.9815C39.4455 7.64 40.0615 7 40.8295 6.52C41.6135 6.04 42.4455 5.8 43.3255 5.8C43.9815 5.8 44.5655 5.928 45.0775 6.184C45.5895 6.424 45.9655 6.728 46.2055 7.096C46.4615 7.496 46.6695 8.024 46.8295 8.68C47.3415 7.784 48.0055 7.08 48.8215 6.568C49.6375 6.056 50.5095 5.8 51.4375 5.8C52.0775 5.8 52.6535 5.928 53.1655 6.184C53.6775 6.424 54.0695 6.76 54.3415 7.192C54.5335 7.496 54.6855 7.888 54.7975 8.368C54.9095 8.848 54.9895 9.472 55.0375 10.24C55.0855 10.992 55.1095 11.952 55.1095 13.12V17.2L56.9575 17.656V19H50.4535V17.656L52.0615 17.2V12.568C52.0615 11.528 52.0295 10.76 51.9655 10.264C51.9015 9.752 51.8055 9.344 51.6775 9.04C51.5175 8.656 51.3015 8.392 51.0295 8.248C50.7735 8.088 50.5015 8.008 50.2135 8.008C49.8135 8.008 49.4455 8.064 49.1095 8.176C48.7895 8.288 48.4775 8.48 48.1735 8.752C47.8215 9.072 47.5575 9.448 47.3815 9.88C47.2215 10.312 47.1255 10.856 47.0935 11.512V17.2L48.7015 17.656V19H42.4375V17.656L44.0455 17.2V12.568C44.0455 11.528 44.0135 10.76 43.9495 10.264C43.8855 9.752 43.7895 9.344 43.6615 9.04C43.5015 8.656 43.2855 8.392 43.0135 8.248C42.7575 8.088 42.4855 8.008 42.1975 8.008C41.7975 8.008 41.4295 8.064 41.0935 8.176C40.7735 8.288 40.4615 8.48 40.1575 8.752C39.8055 9.072 39.5415 9.448 39.3655 9.88C39.2055 10.312 39.1095 10.856 39.0775 11.512V17.2L40.6855 17.656V19H34.1815V17.656L36.0295 17.2ZM59.9123 7.84L58.0643 7.384V6.04H62.9603V17.2L64.8083 17.656V19H58.0643V17.656L59.9123 17.2V7.84ZM59.6483 2.392C59.6483 1.88 59.8003 1.464 60.1043 1.144C60.4243 0.823999 60.8643 0.663999 61.4243 0.663999C61.9843 0.663999 62.4243 0.823999 62.7443 1.144C63.0643 1.464 63.2243 1.88 63.2243 2.392C63.2243 2.888 63.0643 3.296 62.7443 3.616C62.4403 3.936 62.0003 4.096 61.4243 4.096C60.8483 4.096 60.4083 3.944 60.1043 3.64C59.8003 3.32 59.6483 2.904 59.6483 2.392ZM67.8576 17.2V7.84L66.0096 7.384V6.04H70.1856L70.7136 8.44H70.8096C71.2896 7.624 71.9376 6.984 72.7536 6.52C73.5696 6.04 74.4416 5.8 75.3696 5.8C76.6976 5.8 77.6816 6.232 78.3216 7.096C78.6416 7.544 78.8656 8.176 78.9936 8.992C79.1376 9.792 79.2096 10.88 79.2096 12.256V17.2L81.0576 17.656V19H74.5536V17.656L76.1616 17.2V12.568C76.1616 11.608 76.1296 10.864 76.0656 10.336C76.0176 9.792 75.9216 9.36 75.7776 9.04C75.6016 8.624 75.3616 8.336 75.0576 8.176C74.7536 8.016 74.3936 7.936 73.9776 7.936C73.1936 7.936 72.5296 8.192 71.9856 8.704C71.3296 9.312 70.9696 10.248 70.9056 11.512V17.2L72.5136 17.656V19H66.0096V17.656L67.8576 17.2Z" fill="black"/>
</svg>
