<svg width="95" height="25" viewBox="0 0 95 25" fill="none" xmlns="http://www.w3.org/2000/svg">
<path d="M11.88 13.288H9.936L9.528 11.032H6.24V17.2H12.84L13.512 13.648H15.624V19H0.864V17.608L3.12 17.104V3.616L0.864 3.112V1.72H15.096V6.808H13.128L12.432 3.472H6.24V9.232H9.528L9.936 6.952H11.88V13.288ZM18.1978 13.504V11.176H24.2218V13.504H18.1978ZM31.4325 10.648H33.6885C34.1365 10.648 34.5525 10.584 34.9365 10.456C35.3365 10.312 35.6485 10.128 35.8725 9.904C36.1925 9.584 36.4645 9.2 36.6885 8.752C36.9125 8.288 37.0245 7.76 37.0245 7.168C37.0245 6.64 36.9125 6.128 36.6885 5.632C36.4805 5.12 36.2085 4.688 35.8725 4.336C35.6165 4.064 35.2885 3.856 34.8885 3.712C34.4885 3.552 34.0565 3.472 33.5925 3.472H31.4325V10.648ZM34.9365 12.4H31.4325V17.104L33.7125 17.608V19H26.2965V17.608L28.3125 17.104V3.616L26.2965 3.112V1.72H34.9605C35.7125 1.72 36.4005 1.824 37.0245 2.032C37.6485 2.224 38.1605 2.504 38.5605 2.872C39.1205 3.368 39.5605 3.968 39.8805 4.672C40.2165 5.36 40.3845 6.088 40.3845 6.856C40.3845 7.64 40.2085 8.44 39.8565 9.256C39.5205 10.056 39.0725 10.704 38.5125 11.2C38.0965 11.632 37.5765 11.944 36.9525 12.136C36.3285 12.312 35.6565 12.4 34.9365 12.4ZM53.0023 12.856H44.6263C44.6263 13.944 44.7863 14.848 45.1063 15.568C45.3623 16.112 45.7063 16.536 46.1383 16.84C46.5703 17.128 47.1063 17.272 47.7463 17.272C48.4503 17.272 49.1463 17.112 49.8343 16.792C50.5383 16.472 51.1383 15.992 51.6343 15.352L52.9303 16.36C52.3703 17.16 51.6103 17.84 50.6503 18.4C49.7063 18.96 48.5383 19.24 47.1463 19.24C45.9783 19.24 44.9703 19.008 44.1223 18.544C43.2743 18.064 42.6263 17.368 42.1783 16.456C41.9383 15.96 41.7623 15.408 41.6503 14.8C41.5383 14.192 41.4823 13.536 41.4823 12.832C41.4823 10.592 41.9943 8.864 43.0183 7.648C44.0583 6.416 45.5223 5.8 47.4103 5.8C49.1543 5.8 50.5303 6.312 51.5383 7.336C52.5623 8.344 53.0743 9.744 53.0743 11.536C53.0743 11.712 53.0663 11.888 53.0503 12.064C53.0503 12.224 53.0343 12.488 53.0023 12.856ZM47.3623 7.456C45.7143 7.456 44.8103 8.744 44.6503 11.32H49.9303V10.696C49.9303 9.656 49.6983 8.856 49.2343 8.296C48.7863 7.736 48.1623 7.456 47.3623 7.456ZM54.0263 7.6V6.376L56.3783 6.04L56.6663 3.064L59.4023 2.68V6.04H62.4743V7.6H59.4023V15.448C59.4023 15.992 59.4103 16.368 59.4263 16.576C59.4423 16.768 59.4743 16.928 59.5223 17.056C59.5703 17.152 59.6583 17.224 59.7863 17.272C59.9143 17.32 60.1223 17.344 60.4103 17.344H62.0903V18.4C61.1623 18.688 60.3383 18.896 59.6183 19.024C58.9143 19.168 58.3543 19.24 57.9383 19.24C57.2183 19.24 56.7543 18.944 56.5463 18.352C56.4823 18.16 56.4343 17.912 56.4023 17.608C56.3703 17.304 56.3543 16.856 56.3543 16.264V7.6H54.0263ZM65.2639 7.84L63.4159 7.384V6.04H68.3119V17.2L70.1599 17.656V19H63.4159V17.656L65.2639 17.2V7.84ZM64.9999 2.392C64.9999 1.88 65.1519 1.464 65.4559 1.144C65.7759 0.823999 66.2159 0.663999 66.7759 0.663999C67.3359 0.663999 67.7759 0.823999 68.0959 1.144C68.4159 1.464 68.5759 1.88 68.5759 2.392C68.5759 2.888 68.4159 3.296 68.0959 3.616C67.7919 3.936 67.3519 4.096 66.7759 4.096C66.1999 4.096 65.7599 3.944 65.4559 3.64C65.1519 3.32 64.9999 2.904 64.9999 2.392ZM70.7372 7.6V6.376L73.0892 6.04L73.3772 3.064L76.1132 2.68V6.04H79.1852V7.6H76.1132V15.448C76.1132 15.992 76.1212 16.368 76.1372 16.576C76.1532 16.768 76.1852 16.928 76.2332 17.056C76.2812 17.152 76.3692 17.224 76.4972 17.272C76.6252 17.32 76.8332 17.344 77.1212 17.344H78.8012V18.4C77.8732 18.688 77.0492 18.896 76.3292 19.024C75.6252 19.168 75.0652 19.24 74.6492 19.24C73.9292 19.24 73.4652 18.944 73.2572 18.352C73.1932 18.16 73.1452 17.912 73.1132 17.608C73.0812 17.304 73.0652 16.856 73.0652 16.264V7.6H70.7372ZM75.2732 20.056C75.8012 20.056 76.2172 20.192 76.5212 20.464C76.8412 20.752 77.0012 21.136 77.0012 21.616C77.0012 22.24 76.8092 22.808 76.4252 23.32C76.0572 23.832 75.4492 24.312 74.6012 24.76L73.8812 23.992C74.2972 23.672 74.6012 23.384 74.7932 23.128C75.0012 22.872 75.1132 22.624 75.1292 22.384L75.0572 22.336C75.0092 22.416 74.8732 22.456 74.6492 22.456C74.3452 22.456 74.1132 22.344 73.9532 22.12C73.7932 21.896 73.7132 21.648 73.7132 21.376C73.7132 20.96 73.8412 20.632 74.0972 20.392C74.3532 20.168 74.7452 20.056 75.2732 20.056ZM81.9748 7.84L80.1268 7.384V6.04H85.0228V17.2L86.8708 17.656V19H80.1268V17.656L81.9748 17.2V7.84ZM81.7108 2.392C81.7108 1.88 81.8628 1.464 82.1668 1.144C82.4868 0.823999 82.9268 0.663999 83.4868 0.663999C84.0468 0.663999 84.4868 0.823999 84.8068 1.144C85.1268 1.464 85.2868 1.88 85.2868 2.392C85.2868 2.888 85.1268 3.296 84.8068 3.616C84.5028 3.936 84.0628 4.096 83.4868 4.096C82.9108 4.096 82.4708 3.944 82.1668 3.64C81.8628 3.32 81.7108 2.904 81.7108 2.392ZM89.9201 7.84L88.0721 7.384V6.04H92.9681V17.2L94.8161 17.656V19H88.0721V17.656L89.9201 17.2V7.84ZM89.6561 2.392C89.6561 1.88 89.8081 1.464 90.1121 1.144C90.4321 0.823999 90.8721 0.663999 91.4321 0.663999C91.9921 0.663999 92.4321 0.823999 92.7521 1.144C93.0721 1.464 93.2321 1.88 93.2321 2.392C93.2321 2.888 93.0721 3.296 92.7521 3.616C92.4481 3.936 92.0081 4.096 91.4321 4.096C90.8561 4.096 90.4161 3.944 90.1121 3.64C89.8081 3.32 89.6561 2.904 89.6561 2.392Z" fill="black"/>
</svg>
