<svg xmlns="http://www.w3.org/2000/svg" id="&#x421;&#x43B;&#x43E;&#x439;_1" data-name="&#x421;&#x43B;&#x43E;&#x439; 1" viewBox="0 0 235 140"><defs><style>.cls-1,.cls-2{fill:#22557D;}.cls-2{opacity:0;}</style></defs><path class="cls-1" d="M77.88,99.24h5.21l0-68.35H52V36.1a1,1,0,0,0,1,1H76.85V73.31H71.69a1,1,0,0,0-1,1v1a1,1,0,0,0,1,1h5.16v3.13H71.69a1,1,0,0,0-1,1v1.08a1,1,0,0,0,1,1h5.16v3.06H71.69a1,1,0,0,0-1,1v1a1,1,0,0,0,1,1h5.16v9.41A1,1,0,0,0,77.88,99.24Z"></path><path class="cls-1" d="M157,49.53h14.83l1.89-4.8a1,1,0,0,0-1-1.41H156.05a1,1,0,0,0-1,1.41Z"></path><path class="cls-1" d="M161.36,58.85h6.07a1,1,0,0,0,1-.66l2.19-5.56H158.21l2.19,5.56A1,1,0,0,0,161.36,58.85Z"></path><path class="cls-1" d="M171.54,99.24a1,1,0,0,0,1-.65l3.87-9.79h10.28v9.41a1,1,0,0,0,1,1h5.17V30.08L165.54,99.24Zm15.09-36.42,0,0h0V73.31h-4.16Zm-5.36,13.57h5.38v3.13H180Zm-2.48,6.28h7.86v3.06h-9.07Z"></path><path class="cls-1" d="M135.88,99.24h5.19a1,1,0,0,0,1-1V88.8h10.31l3.87,9.79a1,1,0,0,0,1,.65h6L135.88,30Zm6.23-36.54h0l4.19,10.61h-4.19Zm0,13.69h5.41l1.24,3.13h-6.65Zm0,6.28H150l1.21,3.06h-9.1Z"></path><path class="cls-1" d="M185.94,22.24,164.41,76.75l0,0v0L142.85,22.24a1,1,0,0,0-1-.66h-6l28.47,72.08h0L192.86,21.6v0h-6A1,1,0,0,0,185.94,22.24Z"></path><path class="cls-1" d="M219.77,43.32H206.34a1,1,0,0,0-1,1v5.09H220.8V44.35A1,1,0,0,0,219.77,43.32Z"></path><path class="cls-1" d="M205.31,57.72a1,1,0,0,0,1,1h13.43a1,1,0,0,0,1-1V52.63H205.31Z"></path><path class="cls-1" d="M117.24,22.62a1,1,0,0,0-1-1H53a1,1,0,0,0-1,1v5.17h65.27Z"></path><path class="cls-1" d="M117.24,36.1V30.87l-31.06,0,0,68.35h5.18a1,1,0,0,0,1-1V88.8h5.14a1,1,0,0,0,1-1v-1a1,1,0,0,0-1-1H92.41V82.67h5.14a1,1,0,0,0,1-1V80.56a1,1,0,0,0-1-1H92.41V76.39h5.14a1,1,0,0,0,1-1v-1a1,1,0,0,0-1-1H92.41V37.14h23.81A1,1,0,0,0,117.24,36.1Z"></path><path class="cls-1" d="M41.51,49.53H60.28a1,1,0,0,1,1,1V92.42a23.3,23.3,0,0,0,46.6,0l0-41.86a1,1,0,0,1,1-1h14.46V44.35a1,1,0,0,0-1-1H102.77a1,1,0,0,0-1,1l0,48.07a17.09,17.09,0,0,1-34.17,0V44.35a1,1,0,0,0-1-1h-25A32.62,32.62,0,0,0,13.85,58.69a1,1,0,0,0,.37,1.43l4.46,2.58A26.4,26.4,0,0,1,41.51,49.53Z"></path><path class="cls-1" d="M123.44,57.81V52.63H111.05l0,39.71h0a26.41,26.41,0,0,1-52.81,0V52.66l-16.7,0h0A23.29,23.29,0,0,0,21.37,64.25l4.51,2.6a1,1,0,0,0,1.37-.3,17.09,17.09,0,0,1,14.26-7.7H52l0,33.49a32.62,32.62,0,0,0,65.24,0V58.85h5.17A1,1,0,0,0,123.44,57.81Z"></path><path class="cls-1" d="M126.6,22.61v50.7h-5.16a1,1,0,0,0-1,1v1a1,1,0,0,0,1,1h5.16v3.13h-5.16a1,1,0,0,0-1,1v1.08a1,1,0,0,0,1,1h5.16v3.06h-5.16a1,1,0,0,0-1,1v1a1,1,0,0,0,1,1h5.16v9.41a1,1,0,0,0,1,1h5.15V21.58h-5.15A1,1,0,0,0,126.6,22.61Z"></path><path class="cls-1" d="M219.77,73.31H202.2V22.62a1,1,0,0,0-1-1H196V99.24h5.2a1,1,0,0,0,1-1V88.8h17.57a1,1,0,0,0,1-1v-1a1,1,0,0,0-1-1H202.2V82.67h17.57a1,1,0,0,0,1-1V80.56a1,1,0,0,0-1-1H202.2V76.39h17.57a1,1,0,0,0,1-1v-1A1,1,0,0,0,219.77,73.31Z"></path><rect class="cls-1" x="30.27" y="73.31" width="18.63" height="3.08" rx="1.04"></rect><rect class="cls-1" x="30.27" y="85.73" width="18.63" height="3.07" rx="1.04"></rect><rect class="cls-1" x="30.27" y="79.52" width="18.63" height="3.15" rx="1.04"></rect><path class="cls-1" d="M219.77,73.31H202.2V22.62a1,1,0,0,0-1-1H196V99.24h5.2a1,1,0,0,0,1-1V88.8h17.57a1,1,0,0,0,1-1v-1a1,1,0,0,0-1-1H202.2V82.67h17.57a1,1,0,0,0,1-1V80.56a1,1,0,0,0-1-1H202.2V76.39h17.57a1,1,0,0,0,1-1v-1A1,1,0,0,0,219.77,73.31Z"></path><path class="cls-2" d="M219.77-4.35H202.2V-55a1,1,0,0,0-1-1H196V21.58h5.2a1,1,0,0,0,1-1V11.13h17.57a1,1,0,0,0,1-1v-1a1,1,0,0,0-1-1H202.2V5h17.57a1,1,0,0,0,1-1V2.89a1,1,0,0,0-1-1H202.2V-1.27h17.57a1,1,0,0,0,1-1v-1A1,1,0,0,0,219.77-4.35Z"></path><path class="cls-2" d="M-21.46,97.11V79.55H29.23a1,1,0,0,0,1-1V73.32H-47.4v5.19a1,1,0,0,0,1,1h9.41V97.11a1,1,0,0,0,1,1h1a1,1,0,0,0,1-1V79.55h3.06V97.11a1,1,0,0,0,1,1h1.08a1,1,0,0,0,1-1V79.55h3.13V97.11a1,1,0,0,0,1,1h1A1,1,0,0,0-21.46,97.11Z"></path><path class="cls-2" d="M247.67,97.11V79.55h50.69a1,1,0,0,0,1-1V73.32H221.73v5.19a1,1,0,0,0,1,1h9.41V97.11a1,1,0,0,0,1,1h1a1,1,0,0,0,1-1V79.55h3.05V97.11a1,1,0,0,0,1,1h1.08a1,1,0,0,0,1-1V79.55h3.13V97.11a1,1,0,0,0,1,1h1A1,1,0,0,0,247.67,97.11Z"></path></svg>